<svg width="512" height="512" viewBox="0 0 512 512" fill="none" xmlns="http://www.w3.org/2000/svg">
<path d="M461.838 424C431.378 371.34 384.438 333.58 329.658 315.68C356.754 299.549 377.807 274.969 389.582 245.716C401.357 216.462 403.204 184.152 394.839 153.747C386.474 123.342 368.359 96.5236 343.277 77.4102C318.195 58.2968 287.532 47.9453 255.998 47.9453C224.463 47.9453 193.8 58.2968 168.718 77.4102C143.636 96.5236 125.522 123.342 117.156 153.747C108.791 184.152 110.638 216.462 122.413 245.716C134.189 274.969 155.241 299.549 182.338 315.68C127.558 333.56 80.6176 371.32 50.1576 424C49.0406 425.821 48.2997 427.848 47.9786 429.96C47.6575 432.072 47.7627 434.228 48.2881 436.299C48.8134 438.37 49.7483 440.315 51.0374 442.018C52.3266 443.722 53.944 445.151 55.7941 446.219C57.6442 447.288 59.6897 447.975 61.8098 448.241C63.9298 448.506 66.0816 448.344 68.138 447.764C70.1945 447.185 72.114 446.199 73.7834 444.865C75.4527 443.532 76.838 441.877 77.8576 440C115.538 374.88 182.138 336 255.998 336C329.858 336 396.458 374.88 434.138 440C435.157 441.877 436.543 443.532 438.212 444.865C439.881 446.199 441.801 447.185 443.857 447.764C445.914 448.344 448.065 448.506 450.185 448.241C452.305 447.975 454.351 447.288 456.201 446.219C458.051 445.151 459.669 443.722 460.958 442.018C462.247 440.315 463.182 438.37 463.707 436.299C464.232 434.228 464.338 432.072 464.017 429.96C463.696 427.848 462.955 425.821 461.838 424ZM143.998 192C143.998 169.848 150.566 148.194 162.873 129.776C175.18 111.358 192.672 97.0022 213.137 88.5252C233.602 80.0482 256.122 77.8302 277.848 82.1518C299.574 86.4733 319.53 97.1403 335.194 112.804C350.857 128.467 361.524 148.424 365.846 170.15C370.167 191.875 367.949 214.395 359.472 234.86C350.995 255.326 336.64 272.818 318.221 285.124C299.803 297.431 278.149 304 255.998 304C226.303 303.968 197.834 292.158 176.837 271.161C155.84 250.163 144.029 221.694 143.998 192Z" fill="#672146"/>
</svg>
