<svg width="512" height="512" viewBox="0 0 512 512" fill="none" xmlns="http://www.w3.org/2000/svg">
<path d="M403.5 407.602L116 434.076C85.5 437.572 67 450.061 58 470.04C49 490.02 44 512 44 512H468.5C468.5 512 467.5 484.527 462 455.056C456.5 425.585 429.5 406.602 403.5 407.602Z" fill="#843A61"/>
<path d="M232.5 444.066L223.5 346.162C223.5 346.162 344 384.125 344 384.624C344 385.124 341.5 450.06 341.5 450.06C299.228 455.01 275.459 456.232 232.5 444.066Z" fill="#AF6288"/>
<path d="M391.494 69.9319C276.195 54.8132 208.824 42.9569 154.494 103.4C137.393 134.463 136.274 164.935 141.058 191.313C147.044 224.318 162.272 250.915 166.996 264.241C175.495 288.219 379.521 337.039 449.994 274.732L459.994 219.786C456.993 177.826 443.724 116.169 391.494 69.9319Z" fill="#D5B2C5"/>
<path d="M302.5 250.255C286.577 252.31 231 269.736 231 269.736C237.5 300.706 223 318.688 197.5 316.191C197.5 316.191 220.043 345.242 237 358.649C260.003 376.837 274.854 383.399 302.5 387.122C370.177 396.235 428.5 342.665 445 300.706C461.5 258.747 461.538 248.621 460 219.785L459.89 219.965C453.486 230.393 447.994 239.337 447 251.754C446.171 262.109 438.965 267.759 432 272.234C425.035 276.709 381.5 289.217 381.5 289.217C361.509 292.694 356.23 283.198 343.5 268.737C327.384 250.176 318.423 248.201 302.5 250.255Z" fill="#CDA0B8"/>
<path d="M192.506 314.192C172.506 305.7 167.508 285.22 167.508 285.22C167.508 285.22 165.488 274.658 167.103 263.742C168.495 254.334 172.588 244.662 183.004 241.264C205.504 233.925 225.61 249.756 231.008 270.734C240.006 305.701 212.506 322.685 192.506 314.192Z" fill="#672146"/>
<path d="M393.499 71.9286L322.999 87.4134C291.424 50.6227 247.018 48.4516 247.018 48.4516L152.5 64.9354C154.499 41.9579 164.517 22.5417 201.518 11.4877C220.999 5.6678 263.517 -0.00104763 298.017 0.997975C317.049 2.23247 329.366 7.4959 352.018 23.476C374.464 42.6055 381.623 52.8199 393.499 71.9286Z" fill="#AF6288"/>
<path d="M154.469 103.688L154.499 103.902C183.498 78.4242 198.069 68.9224 235.499 66.4384C260.999 67.4374 268.499 74.4306 294.499 88.9164C309.93 90.1929 322.999 87.4179 322.999 87.4179C296.999 45.9559 268.123 37.6753 238.999 38.4658C210.915 39.548 192.443 44.7414 152.496 64.9374C151.375 81.0505 152.423 88.7199 154.469 103.688Z" fill="#843A61"/>
<path d="M176.5 481.029C183 503.007 182 511.999 182 511.999H44C56 460.049 71 450.559 79.5 445.563C83.125 443.433 99 434.574 120 434.574C153.5 437.072 170 459.05 176.5 481.029Z" fill="#672146"/>
<path d="M325.504 137.365C264.326 146.497 224.65 157.198 141.004 189.813C135.966 206.322 141.003 220.783 153.003 231.273C199.849 214.863 229.364 205.969 290.004 190.812C298.004 188.814 302.504 190.812 305.503 194.809L318.003 212.291C318.497 213.203 324.504 217.287 333.003 214.789L388.504 200.803C392.458 197.296 394.993 193.337 393.003 184.818C393.003 184.818 381.002 155.847 376.003 148.354C371.004 140.861 362.504 136.865 349.004 136.865C335.504 136.865 325.504 137.365 325.504 137.365Z" fill="#843A61"/>
</svg>
