<svg width="512" height="512" viewBox="0 0 512 512" fill="none" xmlns="http://www.w3.org/2000/svg">
<path d="M349.246 366.393H174.886C150.09 366.393 128.461 347.664 128.461 322.869V322.605V337.113C128.461 361.909 150.09 383.539 174.885 383.539H349.246C374.304 383.539 395.671 361.645 395.671 337.113V322.606C395.671 347.4 374.041 366.393 349.246 366.393ZM128.196 241.361V221.576L95.7517 168.029C93.9051 165.128 93.1135 162.49 93.3777 159.852V182.536C93.3777 184.647 94.1684 186.758 95.4875 189.132L128.196 241.361Z" fill="#672146"/>
<path d="M349.245 151.146H104.983C95.2231 151.146 89.6846 159.587 96.279 168.556L128.196 223.949V322.868C128.196 348.191 146.662 369.293 171.72 369.293H348.981C374.041 369.293 395.406 347.928 395.406 322.868V197.836C395.671 172.512 374.304 151.146 349.245 151.146Z" fill="#843A61"/>
<path d="M346.344 221.048H177.786C170.4 221.048 163.278 216.564 163.278 209.442C163.278 202.32 170.401 197.836 177.786 197.836H346.342C353.728 197.836 360.851 202.32 360.851 209.442C360.851 216.564 353.728 221.048 346.342 221.048H346.344ZM346.344 267.474H177.786C170.4 267.474 163.278 262.99 163.278 255.868C163.278 248.745 170.401 244.261 177.786 244.261H346.342C353.728 244.261 360.851 248.746 360.851 255.868C360.851 262.99 353.728 267.474 346.342 267.474H346.344ZM299.654 314.163H177.523C170.137 314.163 163.016 309.679 163.016 302.557C163.016 295.435 170.137 290.951 177.523 290.951H299.654C307.039 290.951 314.161 295.434 314.161 302.557C314.161 309.68 307.039 314.163 299.654 314.163Z" fill="#D5B2C5"/>
</svg>
