<svg width="64" height="64" viewBox="0 0 64 64" fill="none" xmlns="http://www.w3.org/2000/svg">
  <path
    d="M31.1732 39.0727L26.9999 54.4559C26.9199 54.7359 26.8799 55.0291 26.8799 55.3357C26.8799 57.1753 28.3732 58.6683 30.2132 58.6683C31.1865 58.6683 32.0532 58.2551 32.6665 57.6019L57.4799 29.448C56.6665 30.3412 55.4932 30.9011 54.1999 30.9011H41.8932C36.7732 30.9011 32.4532 34.3669 31.1732 39.086"
    fill="url(#paint0_linear_10675_90083)"></path>
  <path
    d="M58.6535 26.448C58.6535 23.9952 56.6668 22.009 54.2135 22.009H20.1068L9.77348 33.1132C7.32015 33.1132 5.3335 35.0994 5.3335 37.5522C5.3335 40.005 7.32015 41.9913 9.77348 41.9913H36.5868C39.0402 41.9913 41.0268 43.9776 41.0268 46.4304C41.0268 47.5634 40.6002 48.6032 39.8935 49.3897L56.0268 31.087L57.4668 29.4606H57.4535C58.2002 28.6609 58.6668 27.6078 58.6668 26.4346L58.6535 26.448Z"
    fill="url(#paint1_linear_10675_90083)"></path>
  <path
    d="M58.6535 26.448C58.6535 23.9952 56.6668 22.009 54.2135 22.009H20.1068L9.77348 33.1132C7.32015 33.1132 5.3335 35.0994 5.3335 37.5522C5.3335 40.005 7.32015 41.9913 9.77348 41.9913H36.5868C39.0402 41.9913 41.0268 43.9776 41.0268 46.4304C41.0268 47.5634 40.6002 48.6032 39.8935 49.3897L56.0268 31.087L57.4668 29.4606H57.4535C58.2002 28.6609 58.6668 27.6078 58.6668 26.4346L58.6535 26.448Z"
    fill="url(#paint2_radial_10675_90083)"></path>
  <path
    d="M32.7867 24.929L36.96 9.54565C37.04 9.26572 37.08 8.97245 37.08 8.66585C37.08 6.82625 35.5867 5.33325 33.7467 5.33325C32.7733 5.33325 31.9067 5.74649 31.2933 6.39968L6.47998 34.5535C7.29331 33.6604 8.46663 33.1006 9.75997 33.1006H22.0667C27.1867 33.1006 31.5067 29.6346 32.7867 24.9156"
    fill="url(#paint3_linear_10675_90083)"></path>
  <defs>
    <linearGradient id="paint0_linear_10675_90083" x1="28.7599" y1="60.8812" x2="48.4468" y2="26.7783"
      gradientUnits="userSpaceOnUse">
      <stop offset="0.226672" stop-color="#CA2134"></stop>
      <stop offset="0.497218" stop-color="#670938"></stop>
    </linearGradient>
    <linearGradient id="paint1_linear_10675_90083" x1="8.00016" y1="20" x2="53.3335" y2="48"
      gradientUnits="userSpaceOnUse">
      <stop offset="0.132123" stop-color="#CA2134"></stop>
      <stop offset="0.554865" stop-color="#E82C41"></stop>
      <stop offset="0.647463" stop-color="#F83F54"></stop>
      <stop offset="0.897072" stop-color="#FFA43D"></stop>
    </linearGradient>
    <radialGradient id="paint2_radial_10675_90083" cx="0" cy="0" r="1" gradientUnits="userSpaceOnUse"
      gradientTransform="translate(18.0002 27.3333) rotate(68.1986) scale(14.3604 23.1055)">
      <stop offset="0.140388" stop-color="#4A0829"></stop>
      <stop offset="0.958033" stop-color="#670938" stop-opacity="0"></stop>
    </radialGradient>
    <linearGradient id="paint3_linear_10675_90083" x1="31.9999" y1="29.3332" x2="16.3356" y2="17.5143"
      gradientUnits="userSpaceOnUse">
      <stop stop-color="#FF9C70"></stop>
      <stop offset="0.285" stop-color="#FF835C"></stop>
      <stop offset="0.8" stop-color="#F83F54"></stop>
    </linearGradient>
  </defs>
</svg>
